/* XPM */
static const char * icon_xpm[] = {
"16 16 252 2",
"  	c None",
". 	c #FFFFFF",
"+ 	c #FFFF00",
"@ 	c #FFCCFF",
"# 	c #FFCCCC",
"$ 	c #FFCC99",
"% 	c #FFCC66",
"& 	c #FFCC33",
"* 	c #FFCC00",
"= 	c #FF99FF",
"- 	c #FF99CC",
"; 	c #FF9999",
"> 	c #FF9966",
", 	c #FF9933",
"' 	c #FF9900",
") 	c #FF66FF",
"! 	c #FF66CC",
"~ 	c #FF6699",
"{ 	c #FF6666",
"] 	c #FF6633",
"^ 	c #FF6600",
"/ 	c #FF33FF",
"( 	c #FF33CC",
"_ 	c #FF3399",
": 	c #FF3366",
"< 	c #FF3333",
"[ 	c #FF3300",
"} 	c #FF00FF",
"| 	c #FF00CC",
"1 	c #FF0099",
"2 	c #FF0066",
"3 	c #FF0033",
"4 	c #FF0000",
"5 	c #CCFFFF",
"6 	c #CCFFCC",
"7 	c #CCFF99",
"8 	c #CCFF66",
"9 	c #CCFF33",
"0 	c #CCFF00",
"a 	c #CCCCFF",
"b 	c #CCCCCC",
"c 	c #CCCC99",
"d 	c #CCCC66",
"e 	c #CCCC33",
"f 	c #CCCC00",
"g 	c #CC99FF",
"h 	c #CC99CC",
"i 	c #CC9999",
"j 	c #CC9966",
"k 	c #CC9933",
"l 	c #CC9900",
"m 	c #CC66FF",
"n 	c #CC66CC",
"o 	c #CC6699",
"p 	c #CC6666",
"q 	c #CC6633",
"r 	c #CC6600",
"s 	c #CC33FF",
"t 	c #CC33CC",
"u 	c #CC3399",
"v 	c #CC3366",
"w 	c #CC3333",
"x 	c #CC3300",
"y 	c #CC00FF",
"z 	c #CC00CC",
"A 	c #CC0099",
"B 	c #CC0066",
"C 	c #CC0033",
"D 	c #CC0000",
"E 	c #99FFFF",
"F 	c #99FFCC",
"G 	c #99FF99",
"H 	c #99FF66",
"I 	c #99FF33",
"J 	c #99FF00",
"K 	c #99CCFF",
"L 	c #99CCCC",
"M 	c #99CC99",
"N 	c #99CC66",
"O 	c #99CC33",
"P 	c #99CC00",
"Q 	c #9999FF",
"R 	c #9999CC",
"S 	c #999999",
"T 	c #999966",
"U 	c #999933",
"V 	c #999900",
"W 	c #9966FF",
"X 	c #9966CC",
"Y 	c #996699",
"Z 	c #996666",
"` 	c #996633",
" .	c #996600",
"..	c #9933FF",
"+.	c #9933CC",
"@.	c #993399",
"#.	c #993366",
"$.	c #993333",
"%.	c #993300",
"&.	c #9900FF",
"*.	c #9900CC",
"=.	c #990099",
"-.	c #990066",
";.	c #990033",
">.	c #990000",
",.	c #66FFFF",
"'.	c #66FFCC",
").	c #66FF99",
"!.	c #66FF66",
"~.	c #66FF33",
"{.	c #66FF00",
"].	c #66CCFF",
"^.	c #66CCCC",
"/.	c #66CC99",
"(.	c #66CC66",
"_.	c #66CC33",
":.	c #66CC00",
"<.	c #6699FF",
"[.	c #6699CC",
"}.	c #669999",
"|.	c #669966",
"1.	c #669933",
"2.	c #669900",
"3.	c #6666FF",
"4.	c #6666CC",
"5.	c #666699",
"6.	c #666666",
"7.	c #666633",
"8.	c #666600",
"9.	c #6633FF",
"0.	c #6633CC",
"a.	c #663399",
"b.	c #663366",
"c.	c #663333",
"d.	c #663300",
"e.	c #6600FF",
"f.	c #6600CC",
"g.	c #660099",
"h.	c #660066",
"i.	c #660033",
"j.	c #660000",
"k.	c #33FFFF",
"l.	c #33FFCC",
"m.	c #33FF99",
"n.	c #33FF66",
"o.	c #33FF33",
"p.	c #33FF00",
"q.	c #33CCFF",
"r.	c #33CCCC",
"s.	c #33CC99",
"t.	c #33CC66",
"u.	c #33CC33",
"v.	c #33CC00",
"w.	c #3399FF",
"x.	c #3399CC",
"y.	c #339999",
"z.	c #339966",
"A.	c #339933",
"B.	c #339900",
"C.	c #3366FF",
"D.	c #3366CC",
"E.	c #336699",
"F.	c #336666",
"G.	c #336633",
"H.	c #336600",
"I.	c #3333FF",
"J.	c #3333CC",
"K.	c #333399",
"L.	c #333366",
"M.	c #333333",
"N.	c #333300",
"O.	c #3300FF",
"P.	c #3300CC",
"Q.	c #330099",
"R.	c #330066",
"S.	c #330033",
"T.	c #330000",
"U.	c #00FFFF",
"V.	c #00FFCC",
"W.	c #00FF99",
"X.	c #00FF66",
"Y.	c #00FF33",
"Z.	c #00FF00",
"`.	c #00CCFF",
" +	c #00CCCC",
".+	c #00CC99",
"++	c #00CC66",
"@+	c #00CC33",
"#+	c #00CC00",
"$+	c #0099FF",
"%+	c #0099CC",
"&+	c #009999",
"*+	c #009966",
"=+	c #009933",
"-+	c #009900",
";+	c #0066FF",
">+	c #0066CC",
",+	c #006699",
"'+	c #006666",
")+	c #006633",
"!+	c #006600",
"~+	c #0033FF",
"{+	c #0033CC",
"]+	c #003399",
"^+	c #003366",
"/+	c #003333",
"(+	c #003300",
"_+	c #0000FF",
":+	c #0000CC",
"<+	c #000099",
"[+	c #000066",
"}+	c #000033",
"|+	c #000000",
"1+	c #0D0A00",
"2+	c #6A5002",
"3+	c #261D01",
"4+	c #BF8F00",
"5+	c #B38602",
"6+	c #A67C02",
"7+	c #997302",
"8+	c #332601",
"9+	c #523D02",
"0+	c #1A1301",
"a+	c #CC9915",
"b+	c #860000",
"c+	c #180000",
"d+	c #0A0000",
"e+	c #9C0D0D",
"f+	c #9F1A1A",
"g+	c #A32626",
"h+	c #AC3030",
"i+	c #A63333",
"j+	c #AA4040",
"k+	c #AC4D4D",
"l+	c #BF6060",
"m+	c #AF5A5A",
"n+	c #B26666",
"o+	c #BA7272",
"p+	c #C08383",
"q+	c #EFD8D8",
"r+	c #C0AEAE",
"s+	c #F9EFEF",
"t+	c #A6A6A6",
"u+	c #7F7F7F",
"v+	c #5A5A5A",
"w+	c #4D4D4D",
"x+	c #404040",
"y+	c #262626",
"z+	c #1A1A1A",
"A+	c #0D0D0D",
"B+	c #030303",
"C+	c #010101",
"|+|+|+|+|+|+|+|+|+|+|+|+|+|+|+|+",
"|+. . . >.>.>.>.>.>.>.>.. . . |+",
"|+. . . >.>.>.k+>.>.>.>.. . . |+",
"|+k+. . >.>.k+. k+>.>.>.. . k+|+",
"|+>.. . >.>.s+. s+>.>.>.. . >.|+",
"|+>.k+. >.>.. . . >.>.. . >.>.|+",
"|+>.>.. . >.. . . >.>.. . >.>.|+",
"|+>.>.. . >.. . . k+>.. . >.>.|+",
"|+>.>.. . . . . . . . . . >.>.|+",
"|+>.>.>.. . . k+. . . . >.>.>.|+",
"|+>.>.>.. . . >.. . . k+>.>.>.|+",
"|+>.>.>.. . k+>.k+. . >.>.>.>.|+",
"|+>.>.>.>.. >.>.>.. k+>.>.>.>.|+",
"|+>.>.>.>.. >.>.>.. >.>.>.>.>.|+",
"|+>.>.>.>.k+>.>.>.k+>.>.>.>.>.|+",
"|+|+|+|+|+|+|+|+|+|+|+|+|+|+|+|+"};
